<svg width="386" height="289" viewBox="0 0 386 289" fill="none" xmlns="http://www.w3.org/2000/svg">
<path d="M383.922 31.3418H32.9307V287.937H383.922V31.3418Z" fill="white" fill-opacity="0.6"/>
<path d="M383.922 287.938C383.922 285.239 383.798 186.833 383.598 31.3424L383.922 31.6663C285.423 31.6818 164.036 31.7126 32.9614 31.7435H32.9306L33.3316 31.3424C33.3162 123.409 33.3007 210.679 33.3007 287.938L32.9306 287.568C240.585 287.799 380.698 287.938 383.922 287.938C380.698 287.938 240.585 288.092 32.9306 288.308H32.5604V287.938C32.545 210.679 32.5295 123.409 32.5295 31.3424V30.9414H32.9306H32.9614C164.036 30.9723 285.423 30.9877 383.922 31.0185H384.246V31.3424C384.045 186.833 383.922 285.239 383.922 287.938Z" fill="#263238"/>
<path d="M385.109 68.6842C385.109 68.9002 306.709 69.0853 210.015 69.0853C113.29 69.0853 34.9048 68.9002 34.9048 68.6842C34.9048 68.4683 113.29 68.2832 210.015 68.2832C306.693 68.2832 385.109 68.4683 385.109 68.6842Z" fill="#E0E0E0"/>
<path d="M55.4342 49.2182C55.4342 52.1334 53.0743 54.5087 50.1437 54.5087C47.2286 54.5087 44.8533 52.1488 44.8533 49.2182C44.8533 46.303 47.2132 43.9277 50.1437 43.9277C53.0743 43.9277 55.4342 46.303 55.4342 49.2182Z" fill="#ED6A5E"/>
<path d="M71.3673 49.2182C71.3673 52.1334 69.0074 54.5087 66.0768 54.5087C63.1617 54.5087 60.7864 52.1488 60.7864 49.2182C60.7864 46.303 63.1463 43.9277 66.0768 43.9277C68.992 43.9277 71.3673 46.303 71.3673 49.2182Z" fill="#F4BD4F"/>
<path d="M87.285 49.2182C87.285 52.1334 84.9252 54.5087 81.9946 54.5087C79.0794 54.5087 76.7041 52.1488 76.7041 49.2182C76.7041 46.303 79.064 43.9277 81.9946 43.9277C84.9252 43.9277 87.285 46.303 87.285 49.2182Z" fill="#63C555"/>
<path d="M72.7093 131.395L74.9303 129.991C79.0023 127.4 84.3853 128.804 86.6989 133.03C90.2619 139.523 94.6886 148.577 94.6886 148.577L85.3416 163.384L82.2105 163.477C78.8018 165.652 70.8584 161.271 65.4754 158.001C60.0923 154.732 62.7453 151.446 62.7453 151.446C59.3674 146.804 64.0255 144.891 64.0255 144.891C61.172 140.665 65.3982 137.796 65.3982 137.796" fill="#FFBE9D"/>
<path d="M68.0463 84.577L0.425537 97.5352L18.5711 192.225L86.1918 179.267L68.0463 84.577Z" fill="white"/>
<path d="M18.5706 192.227C18.5706 192.242 18.5244 192.088 18.4627 191.81C18.401 191.486 18.3084 191.07 18.185 190.515C17.9537 189.327 17.5989 187.615 17.167 185.409C16.2724 180.89 14.9922 174.319 13.3573 166.037C10.1028 149.317 5.50641 125.625 0.0616965 97.6152L0 97.2451L0.354755 97.1834C20.7763 93.2502 43.7582 88.8389 67.9587 84.1963H67.9741L68.3751 84.1191L68.4522 84.5202C75.2234 119.98 81.4702 152.772 86.5293 179.224L86.591 179.548L86.2671 179.61C65.7067 183.481 48.7556 186.659 36.9253 188.895C31.0796 189.975 26.4832 190.839 23.3213 191.409C21.7943 191.687 20.6066 191.903 19.7737 192.057C18.9717 192.181 18.5706 192.227 18.5706 192.227C18.5706 192.227 19.0025 192.119 19.82 191.949C20.6683 191.779 21.856 191.533 23.4138 191.224C26.5758 190.592 31.1876 189.682 37.0487 188.525C48.8173 186.227 65.6759 182.941 86.1283 178.947L85.8661 179.332C80.7761 152.88 74.4676 120.104 67.6502 84.659L68.1129 84.9829H68.0975C43.8816 89.6101 20.9151 94.006 0.478148 97.9083L0.771206 97.4764C6.04625 125.41 10.5192 149.039 13.6658 165.728C15.2236 174.073 16.4575 180.674 17.3059 185.224C17.7223 187.476 18.0308 189.204 18.2622 190.422C18.3701 190.993 18.4472 191.44 18.4935 191.764C18.5552 192.057 18.5861 192.211 18.5706 192.227Z" fill="#263238"/>
<path d="M11.7223 119.226C11.676 119.01 22.8431 116.681 36.6477 114.043C50.4677 111.39 61.6964 109.431 61.7273 109.647C61.7736 109.863 50.6065 112.192 36.8019 114.83C22.9819 117.483 11.7532 119.457 11.7223 119.226Z" fill="#263238"/>
<path d="M13.0026 125.919C12.9563 125.703 24.1234 123.374 37.928 120.736C51.748 118.083 62.9767 116.125 63.0076 116.34C63.0538 116.556 51.8868 118.885 38.0822 121.523C24.2622 124.161 13.0334 126.135 13.0026 125.919Z" fill="#263238"/>
<path d="M14.2826 132.599C14.2363 132.383 25.4034 130.054 39.208 127.416C53.028 124.763 64.2568 122.804 64.2876 123.02C64.3339 123.236 53.1668 125.565 39.3622 128.203C25.5576 130.856 14.3135 132.83 14.2826 132.599Z" fill="#263238"/>
<path d="M15.5629 139.292C15.5166 139.076 26.6837 136.747 40.4883 134.109C54.3083 131.456 65.537 129.498 65.5679 129.714C65.6141 129.929 54.4471 132.259 40.6425 134.896C26.8379 137.534 15.5937 139.508 15.5629 139.292Z" fill="#263238"/>
<path d="M16.8432 145.97C16.7969 145.754 27.964 143.425 41.7685 140.787C55.5885 138.134 66.8173 136.175 66.8481 136.391C66.8944 136.607 55.7274 138.936 41.9228 141.574C28.1182 144.227 16.8894 146.186 16.8432 145.97Z" fill="#263238"/>
<path d="M18.1234 152.665C18.0772 152.449 29.2442 150.12 43.0488 147.482C56.8688 144.83 68.0976 142.871 68.1284 143.087C68.1747 143.303 57.0076 145.632 43.203 148.269C29.3985 150.907 18.1697 152.881 18.1234 152.665Z" fill="#263238"/>
<path d="M19.4035 159.343C19.3572 159.127 30.5243 156.798 44.3288 154.16C58.1488 151.507 69.3776 149.548 69.4085 149.764C69.4547 149.98 58.2877 152.309 44.4831 154.947C30.6785 157.6 19.4497 159.559 19.4035 159.343Z" fill="#263238"/>
<path d="M20.6837 166.038C20.6375 165.822 31.8045 163.493 45.6091 160.855C59.4291 158.203 70.6579 156.244 70.6887 156.46C70.735 156.676 59.5679 159.005 45.7633 161.642C31.9588 164.28 20.73 166.254 20.6837 166.038Z" fill="#263238"/>
<path d="M21.964 172.716C21.9177 172.5 33.0848 170.171 46.8894 167.533C60.7094 164.88 71.9381 162.921 71.969 163.137C72.0153 163.353 60.8482 165.682 47.0436 168.32C33.239 170.973 22.0103 172.932 21.964 172.716Z" fill="#263238"/>
<path d="M58.7351 89.8575C58.7968 89.8421 58.951 90.4436 59.2132 91.5387C59.4909 92.8035 59.8302 94.3613 60.2312 96.1814C60.3392 96.6749 60.4472 97.1994 60.5551 97.7238C60.6631 98.3099 60.6477 98.9577 60.4626 99.5747C60.0924 100.809 58.951 101.935 57.4857 102.166C56.0359 102.444 54.3546 101.734 53.5526 100.315C53.3521 99.9603 53.1978 99.5901 53.1207 99.1736C53.0436 98.8189 52.9819 98.4487 52.9048 98.0785C52.766 97.3382 52.6271 96.5978 52.4729 95.842C52.1798 94.3305 51.9022 92.8652 51.64 91.4462C51.5012 90.7367 51.3778 90.0426 51.2544 89.3485C51.131 88.6852 50.9768 87.9449 51.0385 87.2354C51.1464 85.8009 51.8868 84.5362 52.8739 83.7341C53.8611 82.932 55.0642 82.6081 56.1284 82.6236C58.3186 82.6853 59.6914 84.0889 60.2158 85.076C60.4934 85.585 60.6168 86.0169 60.6785 86.3254C60.7248 86.6184 60.7402 86.7727 60.7094 86.7881C60.6323 86.8035 60.5551 86.1557 59.9536 85.2457C59.3829 84.3665 58.0719 83.1788 56.1284 83.1943C55.1875 83.2097 54.1541 83.5336 53.3058 84.2431C52.4729 84.9526 51.8559 86.0477 51.7788 87.2817C51.7325 87.8986 51.8714 88.5002 52.0102 89.2097C52.149 89.8883 52.2878 90.5824 52.4266 91.2919C52.7043 92.7109 52.9819 94.1762 53.275 95.6878C53.4138 96.4436 53.568 97.1839 53.7068 97.9243C53.784 98.2945 53.8457 98.6492 53.9073 99.004C53.969 99.3279 54.0924 99.6209 54.2467 99.914C54.8791 101.04 56.2055 101.642 57.3778 101.426C58.5654 101.256 59.5063 100.377 59.8456 99.3587C60.0153 98.8497 60.0461 98.3253 59.969 97.8317C59.8765 97.2919 59.7839 96.7829 59.6914 96.2739C59.3829 94.423 59.1361 92.8498 58.9202 91.5696C58.7505 90.4899 58.6888 89.8729 58.7351 89.8575Z" fill="#263238"/>
<path d="M78.8634 128.695C78.3544 128.742 58.3185 131.857 58.3185 131.857C57.9637 133.708 59.0434 136.315 63.7632 136.392C68.2362 136.469 72.2773 136.083 72.2773 136.083C72.2773 136.083 77.2284 146.418 82.1025 147.574C86.9765 148.731 84.5858 137.641 84.5858 137.641L78.8634 128.695Z" fill="#FFBE9D"/>
<path d="M308.467 63.451C310.194 59.4099 311.968 55.23 312.122 50.8187C312.292 46.392 310.472 41.6105 306.662 39.6054C303.13 37.7545 298.796 38.6182 295.063 37.2917C290.451 35.6414 287.536 30.9987 285.485 26.4177C283.433 21.8368 286.287 20.171 282.817 16.6234C278.22 11.9191 275.228 11.2404 269.413 14.1093C265.233 11.1479 250.688 5.78027 246.493 5.64146C240.277 5.45637 233.197 5.94994 228.848 10.4075C225.485 13.8625 223.341 18.2584 219.207 20.7571C213.516 24.1812 206.267 21.2661 199.634 21.5129C198.277 21.5591 196.704 21.9139 196.148 23.1478C195.67 24.2121 196.179 25.446 196.688 26.4949C198.4 30.0578 200.112 33.6362 201.824 37.1992C199.048 38.4948 195.655 38.4023 192.94 36.9833C193.233 43.9704 196.087 50.8341 200.822 55.9703C199.65 55.1374 197.876 56.0012 197.29 57.3123C196.704 58.6233 196.966 60.1657 197.351 61.5539C199.665 70.0988 205.819 77.5333 213.778 81.3893C221.752 85.2453 231.393 85.4767 239.536 82.0063L276.122 84.7672C277.14 87.6206 279.577 89.888 282.431 90.6283C286.534 87.5898 287.182 85.8931 287.182 85.8931C289.696 87.7749 287.721 86.8186 289.696 87.7749C294.23 89.9343 300.94 87.3739 301.958 82.3147C302.39 80.2016 302.976 78.1811 304.395 76.7312C305.845 75.2659 307.912 74.6952 309.732 73.7698C312.616 72.3199 315.007 69.8675 316.426 66.906C313.464 66.9523 310.518 65.6721 308.467 63.451Z" fill="#263238"/>
<path d="M282.585 47.7647L283.526 123.281C283.68 136.129 281.29 155.024 260.976 154.345C243.393 152.433 238.735 135.79 238.596 123.806C238.534 118.114 238.472 113.379 238.426 112.793C238.426 112.793 219.177 111.22 217.557 92.217C216.771 83.0242 216.693 63.9755 216.832 46.7313C216.971 28.2224 231.331 12.9216 249.794 11.5797L251.629 11.4409C271.495 11.1633 282.848 27.883 282.585 47.7647Z" fill="#FFBE9D"/>
<path d="M238.411 112.809C238.411 112.809 250.457 112.639 262.657 103.678C262.657 103.678 257.629 118.022 238.519 117.683L238.411 112.809Z" fill="#EB996E"/>
<path d="M249.315 54.5363C249.685 54.9219 251.891 53.1481 255.068 53.071C258.246 52.9322 260.637 54.5517 260.96 54.1353C261.13 53.9502 260.729 53.2561 259.696 52.5157C258.678 51.7908 256.95 51.1121 254.96 51.1738C252.971 51.251 251.336 52.0376 250.395 52.8396C249.439 53.6417 249.13 54.3666 249.315 54.5363Z" fill="#263238"/>
<path d="M248.745 61.6157C248.791 62.973 249.994 64.0527 251.413 64.0218C252.832 63.991 253.943 62.865 253.896 61.5077C253.85 60.1504 252.647 59.0707 251.228 59.0861C249.793 59.1324 248.683 60.2583 248.745 61.6157Z" fill="#263238"/>
<path d="M241.341 76.6863C241.341 76.5166 239.506 76.3315 236.529 76.1773C235.773 76.1618 235.063 76.0539 234.894 75.5603C234.678 75.0359 234.925 74.203 235.233 73.3084C235.804 71.4575 236.405 69.4986 237.022 67.4626C239.49 59.149 241.233 52.3316 240.894 52.2236C240.554 52.1311 238.272 58.7943 235.804 67.1079C235.218 69.1593 234.647 71.1182 234.107 72.9845C233.891 73.8482 233.475 74.8508 233.937 75.9459C234.184 76.4857 234.755 76.8559 235.249 76.9485C235.742 77.0564 236.159 77.041 236.529 77.0256C239.49 76.9793 241.341 76.8559 241.341 76.6863Z" fill="#263238"/>
<path d="M250.673 42.5677C250.981 43.2772 253.526 42.7373 256.58 42.8916C259.634 42.9841 262.148 43.7245 262.503 43.0458C262.657 42.7219 262.179 42.0741 261.146 41.4417C260.112 40.8093 258.508 40.254 256.673 40.1769C254.837 40.0998 253.202 40.5317 252.138 41.0715C251.058 41.6114 250.534 42.2283 250.673 42.5677Z" fill="#263238"/>
<path d="M220.426 48.4595C220.765 49.0302 223.249 48.3978 226.256 48.3052C229.264 48.151 231.763 48.5983 232.087 47.9968C232.225 47.7037 231.732 47.1947 230.683 46.732C229.65 46.2693 228.03 45.9299 226.225 45.9916C224.421 46.0687 222.817 46.5469 221.799 47.0867C220.75 47.6266 220.272 48.1819 220.426 48.4595Z" fill="#263238"/>
<path d="M282.061 61.9701C282.369 61.8005 294.847 57.1424 295.387 70.1912C295.927 83.2246 282.724 81.0806 282.678 80.7104C282.647 80.3248 282.061 61.9701 282.061 61.9701Z" fill="#FFBE9D"/>
<path d="M286.457 75.6066C286.518 75.5603 286.688 75.7608 287.089 75.9151C287.475 76.0693 288.122 76.1619 288.786 75.8842C290.143 75.329 291.207 73.0925 291.176 70.7326C291.161 69.5449 290.868 68.4189 290.405 67.5089C289.973 66.5681 289.326 65.9357 288.631 65.8431C287.937 65.7043 287.459 66.1516 287.32 66.5218C287.166 66.892 287.259 67.1542 287.182 67.1696C287.151 67.2004 286.888 66.9691 286.981 66.4138C287.027 66.1516 287.166 65.8431 287.459 65.5809C287.768 65.3187 288.215 65.1645 288.709 65.1953C289.711 65.2262 290.667 66.1053 291.161 67.1233C291.716 68.1413 292.086 69.3907 292.102 70.7326C292.133 73.3701 290.883 75.8842 289.017 76.5012C288.107 76.7788 287.336 76.532 286.919 76.239C286.503 75.9151 286.41 75.622 286.457 75.6066Z" fill="#EB996E"/>
<path d="M244.41 85.7233C244.272 85.3994 246.817 84.6282 248.621 82.2374C249.516 81.0652 250.04 79.7696 250.426 78.8287C250.811 77.8878 251.089 77.2863 251.228 77.3326C251.367 77.3788 251.32 78.0112 251.12 79.0446C250.904 80.0626 250.457 81.5125 249.439 82.8544C248.436 84.2117 247.094 85.0138 246.107 85.3994C245.12 85.8004 244.441 85.8313 244.41 85.7233Z" fill="#263238"/>
<path d="M299.397 40.8707C296.683 36.2743 296.05 30.7833 294.57 25.6471C293.089 20.5109 290.22 15.205 285.192 13.4003L285.084 13.4466C280.565 11.6266 274.996 11.6111 271.279 14.7422C270.354 7.97105 264.416 2.60346 257.799 0.860533C251.182 -0.882392 240.57 0.166448 234.231 2.71143C229.326 4.68571 224.59 8.72683 218.822 14.6651C216.4 17.1638 214.164 19.863 212.174 22.7319L206.421 40.5005C205.804 40.9478 205.264 41.5031 204.801 42.12C202.519 45.2357 206.791 49.1534 209.691 46.593C209.706 46.5776 209.722 46.5622 209.737 46.5468C210.323 47.5493 210.77 48.5673 211.249 49.5853V49.6162L211.357 49.8013C211.65 50.4336 211.958 51.066 212.328 51.6984V51.6521L216.77 71.287C217.048 65.9349 216.662 47.318 216.94 41.9658C225.207 41.611 232.673 38.2794 238.21 32.1406C241.141 28.9016 243.439 24.845 247.341 22.917C252.385 20.4183 258.385 22.2384 263.706 24.0893L263.475 23.8887C266.236 25.1689 268.75 26.989 270.832 29.2101C269.629 39.7447 270.739 50.5416 274.04 60.6136C274.534 62.1251 275.906 65.2562 277.387 65.8423C280.318 66.9683 281.104 63.9914 282.863 62.4028C284.158 61.2305 286.086 61.0917 288.184 61.0917C289.418 57.8372 290.698 52.3617 291.762 47.5648C293.536 48.1046 295.418 48.2434 297.238 47.9349C296.683 46.593 296.112 45.2511 295.557 43.9092C296.282 44.372 297.038 44.8501 297.901 44.9735C298.75 45.0969 299.737 44.773 300.122 44.0018C300.631 42.9838 299.968 41.827 299.397 40.8707Z" fill="#263238"/>
<path d="M265.295 16.9336C265.264 16.9799 266.097 17.4426 267.207 18.6765C268.302 19.9104 269.536 22.0698 270.123 24.985C270.416 26.4348 270.616 28.0698 270.616 29.8127C270.632 31.5711 270.477 33.4374 270.354 35.4117C270.23 37.386 270.092 39.4837 270.215 41.643C270.277 42.7227 270.416 43.8333 270.647 44.9284C270.894 46.0081 271.171 47.1803 271.989 48.1212C272.637 48.8769 273.732 49.2163 274.673 49.0312C275.629 48.8615 276.462 48.3525 277.094 47.6739C278.313 46.2394 278.621 44.4348 278.93 42.8307L278.529 42.877C279.176 44.3114 279.855 45.7304 280.842 46.8564C281.814 47.9978 283.171 48.7535 284.544 48.8769C285.223 48.9386 285.917 48.8307 286.503 48.5376C287.104 48.2445 287.536 47.751 287.829 47.2266C288.107 46.6867 288.261 46.1006 288.23 45.5453C288.2 44.9746 287.984 44.4502 287.613 44.0646L287.413 44.2497C288.878 45.9155 290.421 46.8101 291.5 47.3191C292.04 47.5659 292.472 47.7201 292.765 47.8127C293.058 47.9052 293.212 47.9361 293.212 47.9206C293.212 47.9052 293.074 47.8435 292.781 47.7356C292.503 47.6122 292.071 47.4425 291.547 47.1803C290.513 46.6559 289.002 45.7304 287.598 44.0646L287.398 44.2497C288.03 44.9284 288.076 46.116 287.521 47.0723C287.243 47.5505 286.842 47.9823 286.318 48.2291C285.793 48.4913 285.161 48.5839 284.544 48.5222C283.279 48.3988 282.03 47.6893 281.104 46.6096C280.164 45.5299 279.516 44.1417 278.883 42.7073L278.606 42.0903L278.482 42.7536C278.174 44.3422 277.85 46.0852 276.739 47.3808C276.184 47.9978 275.413 48.4605 274.58 48.5993C273.747 48.7535 272.868 48.4913 272.297 47.8281C271.588 47.026 271.295 45.9155 271.063 44.8358C270.832 43.7561 270.709 42.6764 270.632 41.6122C270.508 39.4837 270.632 37.4014 270.755 35.4271C270.878 33.4528 271.002 31.5711 270.986 29.7973C270.971 28.0235 270.755 26.3732 270.446 24.9079C269.814 21.9464 268.503 19.7716 267.346 18.5377C266.159 17.3346 265.295 16.9336 265.295 16.9336Z" fill="#597C8D"/>
<path d="M206.452 35.4411C206.452 35.4411 206.498 35.4874 206.606 35.5645C206.729 35.6571 206.884 35.7651 207.084 35.9039C207.285 36.0581 207.562 36.2432 207.886 36.4129C208.21 36.598 208.596 36.8293 209.043 37.0144C210.817 37.8473 213.639 38.6802 217.187 38.4797C220.688 38.2792 224.899 37.0453 228.662 34.2381C232.457 31.508 235.788 27.4823 238.518 22.8705C239.907 20.5723 241.033 18.2124 242.266 16.0222C243.5 13.8474 244.858 11.8268 246.508 10.2381C248.143 8.63403 250.04 7.4618 251.984 6.90653C252.955 6.61347 253.943 6.55178 254.868 6.5672C255.809 6.61347 256.688 6.81399 257.521 7.0762C259.156 7.63146 260.482 8.52606 261.485 9.46693C262.487 10.4078 263.166 11.3949 263.629 12.2433C264.493 13.9862 264.539 15.1122 264.616 15.0967C264.616 15.0967 264.616 15.035 264.601 14.8962C264.57 14.742 264.539 14.5415 264.508 14.3101C264.415 13.8011 264.2 13.0608 263.783 12.1662C263.336 11.287 262.673 10.2536 261.655 9.28184C260.652 8.31013 259.31 7.36925 257.613 6.78314C256.765 6.49008 255.855 6.28957 254.883 6.22787C253.912 6.19702 252.878 6.25872 251.876 6.55178C249.84 7.09162 247.881 8.31013 246.215 9.94508C244.518 11.5646 243.115 13.616 241.865 15.8062C240.601 17.9965 239.475 20.3564 238.102 22.6391C235.403 27.2201 232.117 31.1995 228.385 33.8987C224.698 36.6751 220.58 37.9244 217.125 38.1558C213.639 38.4026 210.848 37.6314 209.074 36.8447C207.331 36.089 206.498 35.3794 206.452 35.4411Z" fill="#597C8D"/>
<path d="M204.724 27.0808C204.709 27.1116 204.956 27.2813 205.403 27.5589C205.85 27.852 206.544 28.2067 207.424 28.5923C208.303 28.9779 209.382 29.3481 210.616 29.6412C211.85 29.9188 213.238 30.1347 214.704 30.181C216.169 30.2273 217.573 30.1039 218.822 29.9034C220.071 29.6874 221.182 29.3944 222.076 29.055C222.971 28.7311 223.696 28.4227 224.159 28.1604C224.637 27.9137 224.884 27.7594 224.868 27.7286C224.837 27.6514 223.773 28.1913 221.984 28.762C221.089 29.055 219.994 29.3018 218.76 29.5023C217.526 29.672 216.154 29.78 214.719 29.7491C213.285 29.6874 211.927 29.5023 210.709 29.2556C209.49 28.9779 208.411 28.654 207.532 28.3147C205.789 27.6206 204.771 27.0036 204.724 27.0808Z" fill="#597C8D"/>
<path d="M220.272 55.7394C220.657 56.125 222.848 54.3512 226.025 54.2741C229.202 54.1353 231.593 55.7548 231.917 55.3384C232.087 55.1533 231.686 54.4592 230.652 53.7189C229.634 52.9939 227.907 52.3153 225.917 52.377C223.927 52.4541 222.292 53.2407 221.351 54.0428C220.395 54.8448 220.087 55.5697 220.272 55.7394Z" fill="#263238"/>
<path d="M222.076 62.0473C222.123 63.4046 223.326 64.4843 224.745 64.4535C226.164 64.4226 227.274 63.2966 227.228 61.9393C227.182 60.582 225.979 59.5023 224.56 59.5177C223.141 59.564 222.03 60.69 222.076 62.0473Z" fill="#263238"/>
<path d="M207.639 132.674L138.848 177.697L96.9251 145.013L83.8608 165.697C83.8608 165.697 108.262 193.938 117.316 203.532C126.354 213.126 132.385 218.247 139.511 217.321C146.637 216.411 206.205 193.275 206.205 193.275L215.228 130.129L211.449 131.039C210.092 131.347 208.796 131.918 207.639 132.674Z" fill="#597C8D"/>
<path d="M284.405 117.297C269.012 126.968 253.511 130.608 237.794 124.346L214.179 130.377L202.704 150.335C200.899 153.466 200.082 157.076 200.344 160.685L204.848 237.081L190.935 285.605L327.161 286.792L320.451 250.746L303.562 121.215L284.405 117.297Z" fill="#597C8D"/>
<path d="M305.228 179.332L300.971 120.844C300.971 120.844 333.037 123.821 343.649 146.432C352.595 165.497 379.418 220.915 382.071 228.751C389.829 251.779 375.562 285.357 325.634 283.537L319.942 252.242L305.228 179.332Z" fill="#597C8D"/>
<path d="M330.847 228.026C330.801 228.041 331.094 228.92 331.649 230.324C332.205 231.727 333.022 233.64 333.963 235.722C334.873 237.758 335.706 239.594 336.369 241.074C336.986 242.447 337.372 243.295 337.418 243.265C337.464 243.249 337.171 242.37 336.616 240.966C336.061 239.563 335.243 237.65 334.302 235.568C333.392 233.532 332.559 231.697 331.896 230.216C331.279 228.858 330.894 228.01 330.847 228.026Z" fill="#263238"/>
<path d="M313.094 182.001C313.202 182.001 313.279 178.299 313.279 173.718C313.279 169.137 313.187 165.436 313.094 165.436C312.986 165.436 312.909 169.137 312.909 173.718C312.909 178.284 313.001 182.001 313.094 182.001Z" fill="#263238"/>
<path d="M317.814 157.091C317.845 157.091 317.937 156.767 318.107 156.165C318.261 155.564 318.523 154.7 318.863 153.651C319.557 151.554 320.714 148.7 322.426 145.785C324.138 142.87 326.066 140.479 327.577 138.844C328.333 138.027 328.95 137.379 329.397 136.962C329.845 136.53 330.076 136.284 330.061 136.253C330.045 136.237 329.768 136.438 329.29 136.854C328.811 137.255 328.148 137.872 327.361 138.659C325.804 140.248 323.814 142.654 322.071 145.584C320.344 148.53 319.202 151.43 318.585 153.574C318.261 154.638 318.045 155.517 317.937 156.134C317.845 156.736 317.799 157.075 317.814 157.091Z" fill="#263238"/>
<path d="M204.693 153.467C204.755 153.467 204.817 154.145 204.878 155.379C204.956 156.613 204.971 158.403 204.94 160.608C204.878 165.019 204.431 171.097 203.891 177.791C203.351 184.485 203.089 190.546 203.213 194.942C203.259 197.132 203.336 198.906 203.444 200.14C203.521 201.359 203.552 202.053 203.49 202.053C203.429 202.053 203.305 201.39 203.135 200.171C202.935 198.953 202.781 197.163 202.657 194.973C202.395 190.562 202.565 184.454 203.105 177.744C203.644 171.05 204.184 164.989 204.385 160.608C204.493 158.418 204.554 156.629 204.585 155.41C204.601 154.161 204.647 153.467 204.693 153.467Z" fill="#263238"/>
<path d="M351.269 238.778C351.3 238.84 350.498 239.256 349.079 240.012C347.644 240.768 345.608 241.909 343.125 243.39C340.642 244.871 337.711 246.706 334.302 248.464C332.59 249.344 330.786 250.223 328.858 251.056C326.93 251.858 324.94 252.675 322.888 253.524C322.256 253.786 321.639 254.033 321.053 254.279L321.3 253.848C322.611 262.13 323.737 269.549 324.523 274.886C324.878 277.462 325.171 279.59 325.403 281.21C325.588 282.706 325.665 283.524 325.618 283.539C325.572 283.554 325.387 282.737 325.109 281.256C324.816 279.637 324.446 277.524 323.983 274.963C323.058 269.642 321.84 262.238 320.513 253.955L320.467 253.647L320.76 253.524C321.346 253.292 321.963 253.03 322.595 252.768C324.631 251.935 326.621 251.117 328.549 250.331C330.462 249.513 332.266 248.665 333.963 247.801C337.372 246.089 340.318 244.315 342.847 242.896C345.377 241.477 347.474 240.413 348.94 239.734C349.68 239.395 350.251 239.148 350.652 238.994C351.053 238.824 351.253 238.747 351.269 238.778Z" fill="#263238"/>
<path d="M358.534 228.752C358.564 228.891 356.914 229.199 354.415 230.124C351.917 231.05 348.6 232.716 345.469 235.292C342.338 237.883 340.071 240.829 338.698 243.096C337.31 245.379 336.693 246.921 336.554 246.875C336.508 246.86 336.616 246.459 336.863 245.734C337.094 245.009 337.557 244.006 338.189 242.819C339.469 240.428 341.737 237.343 344.945 234.675C348.169 232.022 351.624 230.387 354.215 229.585C355.51 229.184 356.59 228.937 357.33 228.829C358.102 228.736 358.518 228.705 358.534 228.752Z" fill="#263238"/>
<path d="M306.647 286.161L340.117 205.4C341.644 201.714 339.732 198.722 335.845 198.722H329.105C326.359 198.722 324.477 197.21 324.308 194.85L324.092 191.873C323.907 189.514 322.04 188.002 319.279 188.002H287.274C284.776 188.002 281.968 189.251 279.871 191.287L277.28 193.801C275.182 195.837 272.375 197.087 269.876 197.087H229.125C225.239 197.087 220.874 200.079 219.393 203.765L186.216 286.176H306.647V286.161Z" fill="#D45235"/>
<g opacity="0.3">
<g opacity="0.3">
<g opacity="0.3">
<g opacity="0.3">
<path opacity="0.3" d="M306.647 286.161L340.117 205.4C341.644 201.714 339.732 198.722 335.845 198.722H329.105C326.359 198.722 324.477 197.21 324.308 194.85L324.092 191.873C323.907 189.514 322.04 188.002 319.279 188.002H287.274C284.776 188.002 281.968 189.251 279.871 191.287L277.28 193.801C275.182 195.837 272.375 197.087 269.876 197.087H229.125C225.239 197.087 220.874 200.079 219.393 203.765L186.216 286.176H306.647V286.161Z" fill="black"/>
</g>
</g>
</g>
</g>
<path d="M312.169 258.738L324.786 209.936C325.619 206.728 323.506 203.504 320.59 203.504H221.645C219.686 203.504 217.974 204.985 217.434 207.144L199.064 280.609C198.262 283.833 199.542 285.776 202.472 285.73L302.035 285.761C303.963 285.73 305.644 284.28 306.2 282.151L312.169 258.738Z" fill="#E0E0E0"/>
<path d="M305.336 283.955L310.719 207.096C310.904 204.366 308.745 202.053 306.015 202.053H203.49V283.955H305.336Z" fill="#EBEBEB"/>
<path d="M306.477 285.713L294.277 206.479C293.722 203.904 291.392 202.053 288.709 202.053H184.997C180.894 202.053 178.133 206.171 179.768 209.857L202.164 282.366L306.477 285.713Z" fill="#FAFAFA"/>
<path d="M306.647 286.115L281.49 211.909C280.441 208.825 277.634 206.758 274.488 206.758H167.568C164.128 206.758 161.691 210.29 162.786 213.683L186.185 286.161L306.647 286.115Z" fill="#D45235"/>
<g opacity="0.3">
<g opacity="0.3">
<g opacity="0.3">
<g opacity="0.3">
<path opacity="0.3" d="M254.945 273.698C254.945 273.698 258.986 273.883 260.837 274.006C269.706 274.608 278.698 273.019 286.812 269.395C289.326 268.269 291.994 266.695 292.75 264.042C293.598 261.081 291.686 257.996 289.341 255.976C286.997 253.97 284.159 252.536 282.123 250.222C280.087 247.909 279.13 244.145 281.135 241.801L281.691 242.202C283.141 245.873 287.166 247.631 290.498 249.729C296.698 253.616 301.418 259.801 303.547 266.788C304.719 270.628 305.027 275.117 302.698 278.387C301.048 280.716 298.333 282.027 295.665 283.014C287.583 286.006 278.93 286.13 270.308 286.13C267.578 286.13 259.218 286.022 259.218 286.022C256.58 285.312 255.717 283.939 254.143 281.718C252.709 279.698 253.017 275.287 254.945 273.698Z" fill="black"/>
</g>
</g>
</g>
</g>
<path d="M254.945 273.698L282.832 269.503L293.66 263.272C295.094 262.454 296.066 260.989 296.143 259.339C296.143 259.308 296.143 259.277 296.143 259.246C296.22 257.195 294.971 255.328 293.074 254.526C289.634 253.076 284.205 251.148 281.876 247.092C278.544 241.246 281.876 240.043 281.876 240.043L305.166 249.359L321.655 260.572L324.971 279.282L301.973 286.793C301.973 286.793 276.339 288.243 269.274 287.441C262.195 286.655 262.195 283.354 262.195 283.354C260.884 282.937 258.231 280.608 258.231 278.434C254.807 275.21 254.945 273.698 254.945 273.698Z" fill="#FFBE9D"/>
<path d="M290.621 281.749C290.606 281.718 290.205 281.795 289.48 281.965C288.755 282.134 287.691 282.381 286.38 282.643C283.758 283.168 280.087 283.723 275.999 283.877C271.912 284.032 268.226 283.769 265.557 283.445C264.231 283.291 263.151 283.137 262.411 283.014C261.67 282.906 261.254 282.859 261.254 282.89C261.254 282.921 261.655 283.029 262.38 283.199C263.105 283.368 264.184 283.584 265.511 283.785C268.179 284.186 271.897 284.51 276.015 284.356C280.133 284.186 283.819 283.584 286.441 282.967C287.753 282.659 288.801 282.381 289.526 282.15C290.236 281.919 290.621 281.78 290.621 281.749Z" fill="#EB996E"/>
<path d="M288.061 277.432C288.045 277.402 287.629 277.479 286.889 277.648C286.148 277.833 285.069 278.065 283.742 278.312C281.074 278.836 277.341 279.345 273.208 279.484C269.058 279.607 265.31 279.33 262.611 278.99C261.254 278.821 260.174 278.666 259.418 278.543C258.663 278.42 258.246 278.373 258.246 278.404C258.246 278.435 258.647 278.543 259.387 278.713C260.128 278.898 261.223 279.098 262.565 279.299C265.264 279.715 269.043 280.055 273.223 279.931C277.403 279.792 281.151 279.222 283.819 278.62C285.146 278.327 286.225 278.034 286.95 277.803C287.675 277.618 288.076 277.463 288.061 277.432Z" fill="#EB996E"/>
</svg>
