<svg width="380" height="313" viewBox="0 0 380 313" fill="none" xmlns="http://www.w3.org/2000/svg">
<path d="M379.658 29.5703H0.42334V311.216H379.658V29.5703Z" fill="#0F0F0F" fill-opacity="0.6"/>
<path d="M379.658 311.232C379.658 308.366 379.528 200.078 379.316 29.5861L379.658 29.9281C272.868 29.9444 141.849 29.977 0.455948 29.9932H0.42338L0.84676 29.5699C0.830476 130.741 0.814193 226.605 0.797909 311.215L0.407096 310.825C224.961 311.069 376.271 311.215 379.658 311.232C376.271 311.232 224.978 311.395 0.42338 311.622H0.0325677V311.232C0.0325677 226.604 0.0162839 130.741 0 29.5699V29.1465H0.42338H0.455948C141.849 29.1791 272.868 29.1953 379.658 29.2279H380V29.5699C379.788 200.078 379.658 308.366 379.658 311.232Z" fill="#263238"/>
<path d="M379.006 68.9449C379.006 69.1728 294.949 69.3682 191.27 69.3682C87.5581 69.3682 3.51709 69.1728 3.51709 68.9449C3.51709 68.7169 87.5581 68.5215 191.27 68.5215C294.949 68.5215 379.006 68.7169 379.006 68.9449Z" fill="#E0E0E0"/>
<path d="M25.2235 48.394C25.2235 51.4716 22.732 53.9793 19.6381 53.9793C16.5442 53.9793 14.0527 51.4879 14.0527 48.394C14.0527 45.3163 16.5442 42.8086 19.6381 42.8086C22.732 42.8086 25.2235 45.3163 25.2235 48.394Z" fill="#ED695F"/>
<path d="M42.0447 48.394C42.0447 51.4716 39.5533 53.9793 36.4594 53.9793C33.3817 53.9793 30.874 51.4879 30.874 48.394C30.874 45.3163 33.3655 42.8086 36.4594 42.8086C39.537 42.8086 42.0447 45.3163 42.0447 48.394Z" fill="#F7BF50"/>
<path d="M58.8499 48.394C58.8499 51.4716 56.3585 53.9793 53.2646 53.9793C50.1869 53.9793 47.6792 51.4879 47.6792 48.394C47.6792 45.3163 50.1706 42.8086 53.2646 42.8086C56.3585 42.8086 58.8499 45.3163 58.8499 48.394Z" fill="#62C555"/>
<path d="M210.29 23.2839C209.019 18.6918 206.528 14.1975 202.424 11.8038C200.47 10.6639 198.256 10.0614 196.269 8.97036C193.875 7.66766 191.905 5.72988 189.658 4.16663C184.154 0.356207 176.973 -0.946501 170.476 0.698168C163.978 2.34284 158.279 6.90232 155.25 12.8785C150.626 9.36118 142.614 10.843 137.143 12.8134C131.671 14.7837 127.095 21.2972 125.776 26.964L151.44 34.7314C156.569 40.3331 162.285 45.5439 168.977 49.1589C175.67 52.7739 183.437 54.728 190.961 53.6044C198.484 52.4645 205.649 47.9702 209.052 41.1635C211.788 35.7085 211.918 29.1786 210.29 23.2839Z" fill="#263238"/>
<path d="M228.495 108.221C235.025 103.661 236.588 93.4185 231.719 87.1167C230.27 85.244 228.299 83.5505 227.974 81.2057C227.778 79.7564 228.251 78.3234 228.593 76.9067C230.905 67.4946 227.062 56.8776 219.278 51.1131C219.148 45.8534 216.201 34.7315 209.524 30.4814L179.204 34.7478C180.588 66.6805 180.49 98.6782 178.927 130.611C178.683 135.512 178.503 140.772 181.19 144.876C184.984 150.689 192.898 151.91 199.852 152.089C206.495 152.252 213.27 151.975 219.539 149.777C225.808 147.579 231.573 143.231 234.211 137.124C238.249 127.712 234.08 116.802 228.495 108.221Z" fill="#263238"/>
<path d="M136.003 43.6224L135.091 36.832L175.1 24.3423C187.557 21.5577 202.653 32.6308 204.916 45.2019C207.424 59.1734 209.931 76.3041 209.459 87.0026C208.531 108.497 192.671 113.04 192.671 113.04L194.299 125.774C195.944 138.671 186.825 150.444 173.928 152.105C161.064 153.75 149.307 144.68 147.613 131.832L136.003 43.6224Z" fill="#FFBE9D"/>
<path d="M202.18 60.9806C202.392 62.3972 201.366 63.7651 199.884 64.0094C198.402 64.2536 197.034 63.3091 196.806 61.8925C196.595 60.4758 197.621 59.1079 199.102 58.8637C200.584 58.6194 201.968 59.5639 202.18 60.9806Z" fill="#263238"/>
<path d="M201.48 54.663C201.187 55.0538 198.956 53.7674 196.041 54.1094C193.126 54.4025 191.156 56.1611 190.814 55.8354C190.635 55.6889 190.912 55.0212 191.759 54.2396C192.605 53.458 194.087 52.6275 195.895 52.4158C197.702 52.2204 199.314 52.7089 200.275 53.2952C201.252 53.8814 201.627 54.4839 201.48 54.663Z" fill="#263238"/>
<path d="M174.986 64.6943C175.198 66.111 174.172 67.4788 172.69 67.7231C171.208 67.9673 169.841 67.0229 169.613 65.6062C169.401 64.1895 170.427 62.8216 171.909 62.5774C173.39 62.3168 174.775 63.2613 174.986 64.6943Z" fill="#263238"/>
<path d="M172.918 58.5058C172.625 58.8966 170.394 57.6102 167.479 57.9521C164.565 58.2452 162.594 60.0039 162.236 59.6782C162.057 59.5317 162.334 58.864 163.18 58.0824C164.011 57.3008 165.509 56.4703 167.317 56.2586C169.124 56.0632 170.736 56.5517 171.697 57.1379C172.69 57.7242 173.065 58.3266 172.918 58.5058Z" fill="#263238"/>
<path d="M185.978 78.8774C185.945 78.7145 187.72 78.1935 190.602 77.477C191.335 77.3141 192.019 77.0861 192.084 76.5651C192.198 76.0114 191.791 75.2461 191.335 74.4156C190.423 72.6895 189.479 70.8983 188.485 69.0094C184.496 61.2908 181.532 54.9238 181.842 54.761C182.151 54.5981 185.636 60.7209 189.609 68.4394C190.57 70.3446 191.498 72.1521 192.377 73.8945C192.752 74.7087 193.354 75.6043 193.094 76.7768C192.963 77.363 192.459 77.8189 192.003 77.998C191.547 78.1935 191.123 78.2586 190.765 78.3237C187.834 78.8285 186.01 79.0402 185.978 78.8774Z" fill="#263238"/>
<path d="M192.671 113.073C192.671 113.073 177.852 115.662 162.822 108.823C162.822 108.823 171.648 122.779 193.273 118.333L192.671 113.073Z" fill="#EB996E"/>
<path d="M185.554 86.042C184.349 84.7719 182.428 84.2345 180.62 84.6416C179.366 84.9184 178.161 85.6838 177.51 86.7911C176.859 87.9147 176.875 89.3802 177.673 90.2921C178.585 91.3017 180.262 91.3668 181.597 90.8132C182.949 90.2595 184.04 89.2011 185.066 88.1589C185.359 87.8658 185.636 87.5727 185.799 87.1982C185.961 86.8237 185.945 86.3677 185.668 86.1072" fill="#EB996E"/>
<path d="M177.64 81.8892C178.113 81.8078 178.487 84.9669 181.451 86.9047C184.414 88.8424 187.736 88.1097 187.818 88.5493C187.883 88.7447 187.134 89.2495 185.717 89.4449C184.333 89.6566 182.232 89.4449 180.425 88.2562C178.617 87.0675 177.689 85.3088 177.445 84.0387C177.152 82.7197 177.412 81.8892 177.64 81.8892Z" fill="#263238"/>
<path d="M172.365 47.0098C172.169 47.8403 169.222 47.7914 165.851 48.6056C162.464 49.3384 159.826 50.6574 159.289 50.006C159.044 49.6966 159.435 48.8824 160.461 47.9868C161.471 47.0912 163.148 46.163 165.183 45.7071C167.203 45.2511 169.124 45.3488 170.427 45.7234C171.73 46.0653 172.446 46.619 172.365 47.0098Z" fill="#263238"/>
<path d="M199.444 46.3585C199.005 47.075 196.92 46.619 194.51 46.8633C192.084 47.0261 190.114 47.8241 189.56 47.189C189.316 46.8796 189.56 46.1794 190.374 45.4466C191.188 44.7138 192.589 44.0462 194.266 43.8996C195.927 43.7694 197.441 44.1928 198.353 44.779C199.282 45.3652 199.64 46.0165 199.444 46.3585Z" fill="#263238"/>
<path d="M140.546 22.4213C136.394 23.7891 131.704 35.1064 132.925 39.2913C134.146 43.4763 138.054 46.5214 142.288 47.5961C146.522 48.6708 151.016 48.0195 155.201 46.7656C161.112 44.9744 167.333 40.9034 167.756 34.7481C173.521 40.5452 182.428 43.0041 190.342 40.9523C198.256 38.9005 204.118 26.8016 206.349 18.9365L140.546 22.4213Z" fill="#263238"/>
<path d="M181.5 64.7918C181.402 64.7918 181.451 63.7333 180.962 61.9096C180.474 60.1346 179.269 57.5292 176.582 55.5263C175.247 54.5493 173.586 53.7188 171.664 53.3931C169.759 53.0837 167.61 53.1488 165.574 53.9305C163.539 54.6632 161.601 56.0637 160.217 57.9689C158.8 59.8578 158.002 62.2841 157.97 64.7918C157.986 67.2995 158.784 69.7258 160.217 71.6147C161.601 73.5362 163.539 74.9204 165.574 75.6531C167.61 76.4348 169.759 76.4999 171.664 76.1905C173.586 75.8648 175.247 75.0343 176.582 74.0573C179.269 72.0544 180.474 69.449 180.962 67.674C181.451 65.8665 181.402 64.7918 181.5 64.7918C181.532 64.7918 181.549 65.0523 181.549 65.5571C181.565 66.0619 181.5 66.811 181.288 67.7555C180.897 69.6118 179.725 72.3638 176.957 74.5458C175.589 75.6043 173.83 76.5162 171.811 76.8907C169.792 77.2652 167.512 77.2164 165.33 76.4022C163.148 75.6368 161.064 74.1713 159.565 72.1195C158.035 70.1003 157.172 67.4786 157.139 64.7918C157.155 62.105 158.035 59.4995 159.565 57.4804C161.047 55.4286 163.148 53.963 165.33 53.1977C167.512 52.3835 169.792 52.3347 171.811 52.7092C173.846 53.0837 175.589 53.9956 176.957 55.0541C179.725 57.2198 180.897 59.9881 181.288 61.8444C181.5 62.7889 181.565 63.5379 181.549 64.0427C181.549 64.5313 181.532 64.7918 181.5 64.7918Z" fill="#455A64"/>
<path d="M211.478 59.4012C211.381 59.4012 211.429 58.3427 210.941 56.5189C210.452 54.744 209.247 52.1386 206.561 50.1194C205.225 49.1423 203.564 48.3119 201.643 47.9862C199.738 47.6768 197.588 47.7419 195.553 48.5236C193.517 49.2563 191.579 50.6567 190.195 52.562C188.779 54.4509 187.981 56.8772 187.948 59.3849C187.964 61.8926 188.762 64.3189 190.195 66.2078C191.579 68.1293 193.517 69.5134 195.553 70.2462C197.588 71.0278 199.738 71.093 201.643 70.7836C203.564 70.4579 205.225 69.6274 206.561 68.6504C209.247 66.6475 210.452 64.0421 210.941 62.2671C211.429 60.4596 211.381 59.3849 211.478 59.4012C211.511 59.4012 211.527 59.6617 211.527 60.1665C211.543 60.6713 211.478 61.4204 211.267 62.3648C210.876 64.2212 209.703 66.9732 206.935 69.1552C205.567 70.2137 203.809 71.1256 201.789 71.5001C199.77 71.8746 197.49 71.8258 195.308 71.0116C193.126 70.2462 191.042 68.7807 189.544 66.7289C188.013 64.7097 187.15 62.088 187.118 59.4012C187.134 56.7143 188.013 54.1089 189.544 52.0897C191.026 50.038 193.126 48.5724 195.308 47.8071C197.49 46.9929 199.77 46.944 201.789 47.3186C203.825 47.6931 205.567 48.605 206.935 49.6634C209.703 51.8292 210.876 54.5974 211.267 56.4538C211.478 57.3983 211.543 58.1473 211.527 58.6521C211.511 59.1406 211.495 59.4012 211.478 59.4012Z" fill="#455A64"/>
<path d="M179.709 58.2131C179.611 58.1968 179.595 57.6431 179.985 56.8615C180.376 56.0962 181.256 55.1191 182.575 54.7121C183.894 54.305 185.164 54.5981 185.929 55.0052C186.694 55.4285 187.004 55.8845 186.939 55.9659C186.857 56.0636 186.434 55.7868 185.701 55.5588C184.985 55.3308 183.91 55.1843 182.835 55.51C181.76 55.8519 180.962 56.5684 180.507 57.1709C180.034 57.7734 179.839 58.2457 179.709 58.2131Z" fill="#455A64"/>
<path d="M157.155 67.6252C157.237 67.8369 155.169 68.7325 152.547 69.6118C149.925 70.4911 147.743 71.0285 147.662 70.8005C147.597 70.5726 149.665 69.677 152.27 68.8139C154.892 67.9346 157.074 67.4135 157.155 67.6252Z" fill="#455A64"/>
<path d="M364.596 104.1C368.097 102.749 366.647 99.1011 366.647 99.1011L353.637 103.026C353.637 103.026 360.541 100.225 364.075 97.3262C367.608 94.4276 365.85 91.9199 365.85 91.9199L352.448 97.0982L344.876 101.56L325.905 130.529C325.905 130.529 340.74 137.775 343.362 135.691C347.97 132.011 350.494 123.804 351.52 119.635C353.376 119.098 359.238 117.355 360.818 116.297C362.707 115.043 363.602 113.154 363.602 113.154L353.278 115.124C354.777 114.685 364.351 111.412 365.117 110.239C366.452 108.171 365.605 107.259 365.605 107.259L352.627 109.279L353.962 108.301C353.946 108.301 361.225 105.403 364.596 104.1Z" fill="#FFBE9D"/>
<path d="M316.802 134.258L273.145 174.235C267.723 172.981 201.252 133.248 201.252 133.248L190.749 184.379C190.749 184.379 258.783 215.661 277.509 211.866C280.571 211.248 285.602 210.857 288.745 206.802C303.726 187.555 335.496 139.924 335.496 139.924L316.802 134.258Z" fill="#FFBE9D"/>
<path d="M346.472 132.255L338.59 128.461L344.289 118.153L348.751 108.708L355.672 95.8604L345.136 99.8173C343.882 100.355 342.791 101.185 341.961 102.244L324.619 126.197L316.933 134.03L324.358 153.994L333.086 140.38C333.086 140.38 333.086 140.38 338.183 139.192C343.247 138.003 346.472 132.255 346.472 132.255Z" fill="#FFBE9D"/>
<path d="M333.803 116.02C337.434 114.196 341.212 112.715 345.12 111.607C346.39 111.233 347.725 110.907 349.028 111.102C350.331 111.298 351.634 112.128 351.992 113.415C352.383 114.864 351.438 116.411 350.184 117.225C348.93 118.039 347.4 118.333 345.951 118.707C344.501 119.082 342.987 119.619 342.026 120.775C341.114 121.866 340.821 123.315 340.349 124.651C338.786 128.998 334.829 132.385 330.302 133.265" fill="#FFBE9D"/>
<path d="M330.285 133.282C330.269 133.216 330.986 133.07 332.191 132.581C333.379 132.093 335.073 131.23 336.734 129.618C337.548 128.82 338.362 127.843 339.03 126.687C339.73 125.514 340.153 124.195 340.626 122.681C340.886 121.932 341.212 121.15 341.798 120.482C342.368 119.815 343.15 119.326 343.948 118.984C345.56 118.268 347.351 118.105 348.93 117.454C349.728 117.128 350.412 116.688 350.933 116.07C351.438 115.467 351.748 114.702 351.715 113.985C351.634 112.487 350.054 111.526 348.67 111.445C347.221 111.331 345.804 111.787 344.485 112.161C343.166 112.552 341.961 112.943 340.854 113.318C338.655 114.083 336.913 114.799 335.708 115.32C334.503 115.825 333.835 116.118 333.819 116.07C333.803 116.021 334.422 115.646 335.578 115.06C336.75 114.474 338.476 113.66 340.658 112.829C341.749 112.406 342.971 111.982 344.29 111.575C345.592 111.184 347.042 110.663 348.702 110.761C349.533 110.81 350.38 111.087 351.096 111.624C351.813 112.145 352.399 113.008 352.448 113.985C352.529 115.972 350.933 117.568 349.207 118.219C347.481 118.919 345.706 119.082 344.241 119.733C343.508 120.043 342.84 120.466 342.352 121.02C341.863 121.573 341.554 122.274 341.293 122.974C340.821 124.407 340.333 125.889 339.583 127.077C338.867 128.282 337.988 129.276 337.108 130.09C335.35 131.702 333.558 132.532 332.305 132.94C331.67 133.135 331.181 133.265 330.823 133.314C330.465 133.282 330.285 133.298 330.285 133.282Z" fill="#EB996E"/>
<path d="M196.318 277.117H106.838C106.838 277.117 93.6318 293.743 84.9199 311.069L212.455 311.59C214.946 307.487 196.318 277.117 196.318 277.117Z" fill="#263238"/>
<path d="M222.763 195.746C219.734 155.688 209.801 130.513 209.801 130.513L194.299 125.742C191.954 135.985 175.279 139.355 165.769 134.877L155.722 129.618C123.464 124.781 125.141 127.452 117.683 131.93C111.202 135.822 111.805 164.889 111.805 164.889C111.805 164.889 95.7325 240.609 96.5956 252.756C97.4749 264.904 106.838 277.101 106.838 277.101C106.838 277.101 187.313 277.101 196.318 277.101C205.323 277.101 207.896 256.73 207.277 249.337C206.642 241.96 223.772 208.92 222.763 195.746Z" fill="#D45235"/>
<path d="M137.794 220.97C137.761 221.019 138.282 221.492 139.292 222.241C140.318 222.99 141.865 223.983 143.917 224.944C145.968 225.904 148.574 226.784 151.554 227.24C154.534 227.663 157.921 227.631 161.324 226.816C168.196 225.221 173.358 221.166 176.517 218.007C178.113 216.395 179.253 214.962 180.002 213.952C180.734 212.926 181.093 212.324 181.044 212.291C180.914 212.177 179.285 214.473 176.045 217.535C172.82 220.531 167.724 224.374 161.096 225.904C154.485 227.5 148.216 226.084 144.177 224.341C140.09 222.583 137.892 220.808 137.794 220.97Z" fill="#263238"/>
<g opacity="0.3">
<g opacity="0.3">
<g opacity="0.3">
<g opacity="0.3">
<g opacity="0.3">
<g opacity="0.3">
<g opacity="0.3">
<path opacity="0.3" d="M179.562 214.343C178.878 221.1 175.654 227.663 170.361 231.929C165.086 236.196 157.741 237.971 151.212 236.098C144.682 234.225 139.259 228.591 138.136 221.882C142.744 223.983 147.418 226.1 152.417 226.849C163.083 228.461 174.465 223.087 179.985 213.838C179.741 214.098 179.497 214.359 179.252 214.603" fill="black" fill-opacity="0.6"/>
</g>
</g>
</g>
</g>
</g>
</g>
</g>
<path d="M77.4292 193.906L122.519 215.043C122.519 215.043 140.904 174.382 142.483 168.813C144.063 163.26 149.029 154.45 143.932 142.856C138.852 131.262 125.222 127.012 117.683 131.946C100.797 143.019 77.4292 193.906 77.4292 193.906Z" fill="#D45235"/>
<path d="M219.213 196.056C221.313 196.056 245.495 208.708 245.495 208.708L259.255 163.114C238.705 149.419 221.835 133.77 209.801 130.546L216.119 168.227L219.213 196.056Z" fill="#D45235"/>
<path d="M77.4294 193.906C77.4457 193.873 77.7551 193.987 78.325 194.215C78.9764 194.492 79.8068 194.85 80.8164 195.274C83.0799 196.283 86.1575 197.651 89.9354 199.312C97.6865 202.846 108.222 207.649 119.865 212.958C121.119 213.528 122.357 214.098 123.513 214.635L122.943 214.831C128.154 204.1 132.713 194.508 135.937 187.588C137.501 184.201 138.771 181.432 139.715 179.397C140.122 178.501 140.464 177.769 140.725 177.182C140.969 176.678 141.099 176.417 141.132 176.433C141.164 176.45 141.067 176.726 140.888 177.248C140.692 177.769 140.415 178.55 140.008 179.527C139.227 181.498 138.022 184.331 136.475 187.832C133.381 194.834 128.919 204.474 123.724 215.205L123.545 215.58L123.154 215.401C121.998 214.863 120.761 214.293 119.507 213.723C107.913 208.333 97.4097 203.448 89.6911 199.85C85.9784 198.075 82.9333 196.625 80.6862 195.551C79.7091 195.062 78.8949 194.655 78.2599 194.346C77.6899 194.101 77.4131 193.938 77.4294 193.906Z" fill="#263238"/>
<path d="M215.061 158.619C215.126 158.603 215.435 159.613 215.989 161.42C216.591 163.374 217.389 165.963 218.366 169.122C220.32 175.603 223.17 184.739 223.3 195.258C223.219 200.518 222.144 205.435 220.89 209.767C219.636 214.115 218.187 217.909 216.95 221.084C215.696 224.26 214.637 226.784 213.905 228.542C213.172 230.301 212.748 231.262 212.7 231.245C212.667 231.229 212.732 230.985 212.895 230.496C213.09 229.926 213.318 229.242 213.611 228.428C214.312 226.523 215.256 223.966 216.412 220.873C217.568 217.681 218.969 213.887 220.174 209.555C221.379 205.24 222.405 200.404 222.486 195.258C222.356 184.918 219.636 175.815 217.829 169.285C216.901 166.012 216.168 163.358 215.712 161.502C215.484 160.573 215.321 159.857 215.207 159.368C215.077 158.88 215.028 158.619 215.061 158.619Z" fill="#263238"/>
<path d="M176.94 149.533C176.24 142.905 172.755 136.766 168.033 132.044C165.704 129.699 162.887 127.354 162.431 124.081C161.845 119.831 165.525 115.858 164.923 111.608C164.173 106.316 157.546 104.003 155.168 99.2159C151.977 92.7675 157.53 84.3813 154.11 78.0469C152.058 74.2365 147.141 72.1847 146.164 67.9672C145.528 65.2315 150.739 61.242 151.944 55.3146C154.664 41.9782 156.048 31.6705 143.102 23.9194L135.563 13.5303C127.079 17.6664 119.963 26.9645 119.816 36.7022C119.751 41.2942 122.096 45.9026 120.093 50.0387C117.309 55.8194 110.795 59.3693 108.825 65.4758C106.008 74.2202 113.759 83.9905 110.372 92.5232C108.385 97.555 103.125 100.421 99.836 104.72C94.674 111.445 95.1951 121.899 101.025 128.071C92.785 133.624 88.9746 144.941 92.1825 154.353C93.5341 158.31 96.5792 162.234 100.748 162.462C106.724 162.788 110.127 156.03 114.508 151.943C121.298 145.592 133.218 145.918 139.666 152.594C144.258 157.366 146.115 164.53 151.472 168.439C156.862 172.363 164.874 171.646 170.052 167.462C175.246 163.26 177.64 156.161 176.94 149.533Z" fill="#263238"/>
<path d="M118.09 212.176C109.557 226.213 103.598 234.274 103.598 234.274L180.181 280.911L171.257 301.64L71.9255 260.751C71.9255 260.751 62.1389 250.672 65.5911 239.452L81.4353 195.746L118.09 212.176Z" fill="#FFBE9D"/>
<path d="M84.9691 241.406C85.1482 241.65 88.7632 238.605 94.1369 236.651C99.478 234.632 104.217 234.583 104.184 234.273C104.233 234.045 99.3477 233.671 93.7949 235.755C88.2421 237.791 84.7899 241.259 84.9691 241.406Z" fill="#EB996E"/>
<path d="M239.584 295.127L220.483 285.992L183.209 283.028L180.164 280.911L171.241 301.64C171.241 301.64 181.011 306.314 186.124 306.721L217.471 305.777L233.852 307.503L239.584 295.127Z" fill="#FFBE9D"/>
<path d="M347.041 221.54L239.584 222.419C236.099 222.419 232.761 224.097 232.24 227.533L220.499 305.858H165.15C163.376 305.858 161.926 307.307 161.926 309.082C161.926 310.857 163.376 312.306 165.15 312.306H219.539H229.863H341.928L354.011 229.649C354.662 225.383 351.356 221.54 347.041 221.54Z" fill="#E0E0E0"/>
<path d="M347.041 221.54C347.041 221.54 347.627 221.459 348.735 221.703C349.809 221.947 351.503 222.615 352.838 224.422C353.506 225.302 354.011 226.49 354.173 227.858C354.353 229.242 353.945 230.708 353.783 232.271C353.327 235.43 352.822 239.078 352.236 243.181C349.874 259.595 346.455 283.272 342.27 312.355L342.221 312.632H341.928C296.187 312.664 236.067 312.697 170.426 312.73C168.879 312.73 167.349 312.73 165.818 312.73C165.102 312.762 164.108 312.713 163.375 312.257C162.61 311.834 162.024 311.134 161.731 310.32C161.079 308.675 161.861 306.672 163.392 305.858C164.125 305.418 165.102 305.369 165.818 305.402H168.098C174.155 305.402 180.148 305.402 186.059 305.402C197.897 305.402 209.41 305.402 220.516 305.418L220.108 305.776C224.342 277.736 228.283 251.567 231.817 228.086C231.947 226.604 232.614 224.992 233.803 223.999C234.976 222.957 236.441 222.419 237.907 222.191C239.405 221.963 240.821 222.094 242.238 222.045C243.655 222.029 245.055 222.029 246.456 222.012C252.041 221.98 257.431 221.931 262.626 221.898C273.031 221.833 282.638 221.768 291.383 221.719C308.823 221.638 322.746 221.556 332.32 221.508C337.075 221.491 340.756 221.491 343.263 221.491C344.485 221.491 345.429 221.508 346.097 221.508C346.715 221.524 347.041 221.54 347.041 221.54C347.041 221.54 346.715 221.573 346.08 221.589C345.429 221.605 344.484 221.621 343.247 221.654C340.739 221.687 337.059 221.752 332.304 221.817C322.729 221.931 308.823 222.077 291.383 222.273C282.655 222.354 273.031 222.452 262.626 222.55C257.431 222.599 252.025 222.647 246.456 222.696C245.055 222.713 243.655 222.729 242.238 222.729C240.821 222.778 239.372 222.664 238.004 222.875C236.637 223.087 235.285 223.608 234.259 224.536C233.201 225.448 232.647 226.735 232.517 228.2C229.016 251.681 225.108 277.85 220.923 305.907L220.874 306.265H220.516C209.41 306.265 197.881 306.265 186.059 306.281C180.148 306.281 174.155 306.281 168.098 306.281H165.818C165.02 306.265 164.418 306.298 163.815 306.623C162.643 307.242 162.056 308.773 162.545 310.027C162.773 310.645 163.229 311.183 163.799 311.508C164.401 311.85 165.004 311.883 165.818 311.867C167.349 311.867 168.896 311.867 170.426 311.867C236.067 311.899 296.187 311.948 341.928 311.964L341.602 312.241C345.917 283.174 349.419 259.514 351.861 243.1C352.48 239.013 353.017 235.365 353.489 232.206C353.685 230.626 354.092 229.177 353.929 227.858C353.799 226.539 353.31 225.383 352.675 224.52C351.405 222.745 349.76 222.061 348.702 221.784C347.627 221.54 347.041 221.589 347.041 221.54Z" fill="#263238"/>
<path d="M288.761 272.655C292.475 272.655 295.486 269.644 295.486 265.929C295.486 262.215 292.475 259.204 288.761 259.204C285.047 259.204 282.036 262.215 282.036 265.929C282.036 269.644 285.047 272.655 288.761 272.655Z" fill="white"/>
<path d="M224.863 311.59C225.01 311.623 228.43 291.675 232.501 267.054C236.572 242.433 239.747 222.453 239.584 222.42C239.437 222.387 236.018 242.335 231.947 266.956C227.876 291.577 224.701 311.558 224.863 311.59Z" fill="#263238"/>
</svg>
